<svg width="50" height="50" viewBox="0 0 50 50" fill="none" xmlns="http://www.w3.org/2000/svg">
<circle cx="25" cy="25" r="25" fill="#EA4343"/>
<g clip-path="url(#clip0_146_58)">
<path d="M10 19.7614C10.1469 19.2964 10.4437 19.0685 10.8264 18.9072C15.3968 16.9814 19.9633 15.0443 24.529 13.1034C24.85 12.9665 25.15 12.9665 25.4687 13.1015C30.0539 15.0471 34.6399 16.9879 39.2259 18.9316C39.8789 19.2082 40.15 19.8027 39.9188 20.4327C39.7797 20.8115 39.504 20.9672 39.2017 21.0966C37.1348 21.9742 35.0687 22.8584 33.0027 23.7397C30.4952 24.8086 27.987 25.8737 25.4827 26.9511C25.1523 27.0936 24.85 27.0926 24.5188 26.9511C19.9195 24.9793 15.3195 23.0149 10.7163 21.061C10.3648 20.9119 10.139 20.6503 10 20.2537C10 20.0896 10 19.9255 10 19.7614Z" fill="white"/>
<path d="M16.1748 25.626C17.2645 26.0892 18.2917 26.5252 19.3189 26.964C20.8796 27.6306 22.441 28.2926 23.9986 28.9686C24.7016 29.2742 25.3843 29.2358 26.0834 28.9339C28.5401 27.8734 31.003 26.8308 33.4635 25.7816C33.5627 25.7394 33.6627 25.6991 33.8002 25.6429C33.808 25.7844 33.8189 25.8951 33.8189 26.0048C33.8205 27.3521 33.8096 28.6995 33.8236 30.0468C33.8314 30.7463 33.6073 31.2939 33.1745 31.7374C32.4996 32.4293 31.6935 32.8128 30.8632 33.1269C28.6518 33.9642 26.3803 34.2324 24.0728 34.1152C22.0536 34.013 20.0727 33.6501 18.1987 32.6984C17.7113 32.4509 17.2528 32.0955 16.8216 31.7224C16.3615 31.3239 16.1623 30.7397 16.1701 30.0412C16.185 28.706 16.1748 27.3699 16.1748 26.0338C16.1748 25.9204 16.1748 25.806 16.1748 25.626Z" fill="white"/>
<path d="M36.1279 24.6441C36.7083 24.3966 37.2746 24.1547 37.8854 23.894C37.8854 24.0544 37.8854 24.1763 37.8854 24.2972C37.8854 27.1213 37.887 29.9464 37.8815 32.7705C37.8807 32.988 37.9307 33.1221 38.0799 33.2627C39.0142 34.1422 38.9931 35.7455 38.0612 36.6325C37.9675 36.7216 37.894 36.9138 37.8925 37.0591C37.8807 38.6643 37.8886 40.2705 37.8831 41.8757C37.8807 42.6286 37.38 43.1274 36.8028 42.9689C36.395 42.8564 36.1287 42.4354 36.1279 41.8785C36.1256 40.2967 36.1224 38.714 36.131 37.1323C36.1326 36.8894 36.0834 36.7347 35.9147 36.5772C35.0195 35.7446 35.014 34.1347 35.9068 33.288C36.0849 33.1193 36.131 32.9542 36.1302 32.7048C36.1248 30.1498 36.1271 27.5948 36.1271 25.0398C36.1279 24.9132 36.1279 24.7857 36.1279 24.6441Z" fill="white"/>
</g>
<defs>
<clipPath id="clip0_146_58">
<rect width="30" height="30" fill="white" transform="translate(10 13)"/>
</clipPath>
</defs>
</svg>
